<mxfile host="app.diagrams.net" agent="Mozilla/5.0 (Windows NT 10.0; Win64; x64) AppleWebKit/537.36 (KHTML, like Gecko) Chrome/135.0.0.0 Safari/537.36" version="26.2.13">
  <diagram name="Σελίδα-1" id="2FHxiStDx8Bs9Jf6Mh0w">
    <mxGraphModel dx="2904" dy="931" grid="1" gridSize="10" guides="1" tooltips="1" connect="1" arrows="1" fold="1" page="1" pageScale="1" pageWidth="827" pageHeight="1169" math="0" shadow="0">
      <root>
        <mxCell id="0" />
        <mxCell id="1" parent="0" />
        <mxCell id="T30wrrtLgPA3CPtJ6Rs8-3" value="" style="edgeStyle=orthogonalEdgeStyle;rounded=0;orthogonalLoop=1;jettySize=auto;html=1;exitX=0;exitY=0.75;exitDx=0;exitDy=0;entryX=0.5;entryY=0;entryDx=0;entryDy=0;" edge="1" parent="1" source="T30wrrtLgPA3CPtJ6Rs8-1" target="T30wrrtLgPA3CPtJ6Rs8-2">
          <mxGeometry relative="1" as="geometry">
            <mxPoint x="494" y="100.00000000000023" as="sourcePoint" />
            <mxPoint x="-336" y="270" as="targetPoint" />
            <Array as="points">
              <mxPoint x="510" y="100" />
              <mxPoint x="-370" y="100" />
            </Array>
          </mxGeometry>
        </mxCell>
        <mxCell id="T30wrrtLgPA3CPtJ6Rs8-61" value="subclassOf" style="edgeLabel;html=1;align=center;verticalAlign=middle;resizable=0;points=[];" vertex="1" connectable="0" parent="T30wrrtLgPA3CPtJ6Rs8-3">
          <mxGeometry x="0.7908" y="-2" relative="1" as="geometry">
            <mxPoint as="offset" />
          </mxGeometry>
        </mxCell>
        <mxCell id="T30wrrtLgPA3CPtJ6Rs8-7" value="" style="edgeStyle=orthogonalEdgeStyle;rounded=0;orthogonalLoop=1;jettySize=auto;html=1;" edge="1" parent="1" source="T30wrrtLgPA3CPtJ6Rs8-1" target="T30wrrtLgPA3CPtJ6Rs8-6">
          <mxGeometry relative="1" as="geometry" />
        </mxCell>
        <mxCell id="T30wrrtLgPA3CPtJ6Rs8-8" value="hasRiskCategory" style="edgeLabel;html=1;align=center;verticalAlign=middle;resizable=0;points=[];" vertex="1" connectable="0" parent="T30wrrtLgPA3CPtJ6Rs8-7">
          <mxGeometry x="-0.3889" y="-3" relative="1" as="geometry">
            <mxPoint as="offset" />
          </mxGeometry>
        </mxCell>
        <mxCell id="T30wrrtLgPA3CPtJ6Rs8-26" value="" style="edgeStyle=orthogonalEdgeStyle;rounded=0;orthogonalLoop=1;jettySize=auto;html=1;" edge="1" parent="1" source="T30wrrtLgPA3CPtJ6Rs8-1" target="T30wrrtLgPA3CPtJ6Rs8-25">
          <mxGeometry relative="1" as="geometry">
            <Array as="points">
              <mxPoint x="-180" y="50" />
            </Array>
          </mxGeometry>
        </mxCell>
        <mxCell id="T30wrrtLgPA3CPtJ6Rs8-62" value="hasComplianceCheck" style="edgeLabel;html=1;align=center;verticalAlign=middle;resizable=0;points=[];" vertex="1" connectable="0" parent="T30wrrtLgPA3CPtJ6Rs8-26">
          <mxGeometry x="0.7606" y="1" relative="1" as="geometry">
            <mxPoint as="offset" />
          </mxGeometry>
        </mxCell>
        <mxCell id="T30wrrtLgPA3CPtJ6Rs8-33" style="edgeStyle=orthogonalEdgeStyle;rounded=0;orthogonalLoop=1;jettySize=auto;html=1;exitX=0;exitY=0.5;exitDx=0;exitDy=0;entryX=0.5;entryY=0;entryDx=0;entryDy=0;" edge="1" parent="1" source="T30wrrtLgPA3CPtJ6Rs8-1" target="T30wrrtLgPA3CPtJ6Rs8-28">
          <mxGeometry relative="1" as="geometry">
            <Array as="points">
              <mxPoint x="510" y="30" />
              <mxPoint x="-15" y="30" />
            </Array>
          </mxGeometry>
        </mxCell>
        <mxCell id="T30wrrtLgPA3CPtJ6Rs8-34" value="&lt;span data-end=&quot;254&quot; data-start=&quot;233&quot;&gt;&lt;code style=&quot;&quot; data-end=&quot;252&quot; data-start=&quot;235&quot;&gt;hasRegistration&lt;/code&gt;&lt;/span&gt;" style="edgeLabel;html=1;align=center;verticalAlign=middle;resizable=0;points=[];" vertex="1" connectable="0" parent="T30wrrtLgPA3CPtJ6Rs8-33">
          <mxGeometry x="0.7535" y="-2" relative="1" as="geometry">
            <mxPoint y="-1" as="offset" />
          </mxGeometry>
        </mxCell>
        <mxCell id="T30wrrtLgPA3CPtJ6Rs8-36" value="" style="edgeStyle=orthogonalEdgeStyle;rounded=0;orthogonalLoop=1;jettySize=auto;html=1;" edge="1" parent="1" source="T30wrrtLgPA3CPtJ6Rs8-1" target="T30wrrtLgPA3CPtJ6Rs8-35">
          <mxGeometry relative="1" as="geometry">
            <Array as="points">
              <mxPoint x="155" y="60" />
            </Array>
          </mxGeometry>
        </mxCell>
        <mxCell id="T30wrrtLgPA3CPtJ6Rs8-37" value="&lt;span data-end=&quot;320&quot; data-start=&quot;301&quot;&gt;&lt;code style=&quot;&quot; data-end=&quot;318&quot; data-start=&quot;303&quot;&gt;hasIdentifier&lt;/code&gt;&lt;/span&gt;" style="edgeLabel;html=1;align=center;verticalAlign=middle;resizable=0;points=[];" vertex="1" connectable="0" parent="T30wrrtLgPA3CPtJ6Rs8-36">
          <mxGeometry x="0.6947" y="2" relative="1" as="geometry">
            <mxPoint as="offset" />
          </mxGeometry>
        </mxCell>
        <mxCell id="T30wrrtLgPA3CPtJ6Rs8-39" value="" style="edgeStyle=orthogonalEdgeStyle;rounded=0;orthogonalLoop=1;jettySize=auto;html=1;" edge="1" parent="1" source="T30wrrtLgPA3CPtJ6Rs8-1" target="T30wrrtLgPA3CPtJ6Rs8-38">
          <mxGeometry relative="1" as="geometry" />
        </mxCell>
        <mxCell id="T30wrrtLgPA3CPtJ6Rs8-40" value="requiresPostMarketMonitoringPlan" style="edgeLabel;html=1;align=center;verticalAlign=middle;resizable=0;points=[];" vertex="1" connectable="0" parent="T30wrrtLgPA3CPtJ6Rs8-39">
          <mxGeometry x="0.5903" y="-1" relative="1" as="geometry">
            <mxPoint as="offset" />
          </mxGeometry>
        </mxCell>
        <mxCell id="T30wrrtLgPA3CPtJ6Rs8-42" value="" style="edgeStyle=orthogonalEdgeStyle;rounded=0;orthogonalLoop=1;jettySize=auto;html=1;" edge="1" parent="1" source="T30wrrtLgPA3CPtJ6Rs8-1" target="T30wrrtLgPA3CPtJ6Rs8-41">
          <mxGeometry relative="1" as="geometry" />
        </mxCell>
        <mxCell id="T30wrrtLgPA3CPtJ6Rs8-46" value="hasComplianceActivity" style="edgeLabel;html=1;align=center;verticalAlign=middle;resizable=0;points=[];" vertex="1" connectable="0" parent="T30wrrtLgPA3CPtJ6Rs8-42">
          <mxGeometry x="0.472" y="3" relative="1" as="geometry">
            <mxPoint as="offset" />
          </mxGeometry>
        </mxCell>
        <mxCell id="T30wrrtLgPA3CPtJ6Rs8-56" value="" style="edgeStyle=orthogonalEdgeStyle;rounded=0;orthogonalLoop=1;jettySize=auto;html=1;" edge="1" parent="1" source="T30wrrtLgPA3CPtJ6Rs8-1" target="T30wrrtLgPA3CPtJ6Rs8-55">
          <mxGeometry relative="1" as="geometry">
            <Array as="points">
              <mxPoint x="1170" y="50" />
            </Array>
          </mxGeometry>
        </mxCell>
        <mxCell id="T30wrrtLgPA3CPtJ6Rs8-57" value="hasDeclaredChange" style="edgeLabel;html=1;align=center;verticalAlign=middle;resizable=0;points=[];" vertex="1" connectable="0" parent="T30wrrtLgPA3CPtJ6Rs8-56">
          <mxGeometry x="0.6267" y="4" relative="1" as="geometry">
            <mxPoint as="offset" />
          </mxGeometry>
        </mxCell>
        <mxCell id="T30wrrtLgPA3CPtJ6Rs8-59" value="" style="edgeStyle=orthogonalEdgeStyle;rounded=0;orthogonalLoop=1;jettySize=auto;html=1;" edge="1" parent="1" source="T30wrrtLgPA3CPtJ6Rs8-1" target="T30wrrtLgPA3CPtJ6Rs8-58">
          <mxGeometry relative="1" as="geometry">
            <Array as="points">
              <mxPoint x="1390" y="70" />
            </Array>
          </mxGeometry>
        </mxCell>
        <mxCell id="T30wrrtLgPA3CPtJ6Rs8-60" value="hasTechnicalDocumentation" style="edgeLabel;html=1;align=center;verticalAlign=middle;resizable=0;points=[];" vertex="1" connectable="0" parent="T30wrrtLgPA3CPtJ6Rs8-59">
          <mxGeometry x="0.707" y="4" relative="1" as="geometry">
            <mxPoint as="offset" />
          </mxGeometry>
        </mxCell>
        <mxCell id="T30wrrtLgPA3CPtJ6Rs8-1" value="&lt;strong data-end=&quot;239&quot; data-start=&quot;224&quot;&gt;&lt;code data-end=&quot;237&quot; data-start=&quot;226&quot;&gt;&lt;font style=&quot;font-size: 14px;&quot;&gt;AI_System&lt;/font&gt;&lt;/code&gt;&lt;/strong&gt;" style="rounded=0;whiteSpace=wrap;html=1;" vertex="1" parent="1">
          <mxGeometry x="510" y="30" width="200" height="100" as="geometry" />
        </mxCell>
        <mxCell id="T30wrrtLgPA3CPtJ6Rs8-2" value="&lt;code data-end=&quot;357&quot; data-start=&quot;345&quot;&gt;&lt;b&gt;HighRiskAI&lt;/b&gt;&lt;/code&gt;" style="rounded=0;whiteSpace=wrap;html=1;" vertex="1" parent="1">
          <mxGeometry x="-430" y="270" width="120" height="60" as="geometry" />
        </mxCell>
        <mxCell id="T30wrrtLgPA3CPtJ6Rs8-16" style="edgeStyle=orthogonalEdgeStyle;rounded=0;orthogonalLoop=1;jettySize=auto;html=1;exitX=1;exitY=0.5;exitDx=0;exitDy=0;entryX=0.5;entryY=0;entryDx=0;entryDy=0;" edge="1" parent="1" source="T30wrrtLgPA3CPtJ6Rs8-6" target="T30wrrtLgPA3CPtJ6Rs8-12">
          <mxGeometry relative="1" as="geometry" />
        </mxCell>
        <mxCell id="T30wrrtLgPA3CPtJ6Rs8-17" value="instanceOf" style="edgeLabel;html=1;align=center;verticalAlign=middle;resizable=0;points=[];" vertex="1" connectable="0" parent="T30wrrtLgPA3CPtJ6Rs8-16">
          <mxGeometry x="-0.3628" y="-1" relative="1" as="geometry">
            <mxPoint as="offset" />
          </mxGeometry>
        </mxCell>
        <mxCell id="T30wrrtLgPA3CPtJ6Rs8-20" style="edgeStyle=orthogonalEdgeStyle;rounded=0;orthogonalLoop=1;jettySize=auto;html=1;exitX=0;exitY=0.5;exitDx=0;exitDy=0;entryX=0.5;entryY=0;entryDx=0;entryDy=0;" edge="1" parent="1" source="T30wrrtLgPA3CPtJ6Rs8-6" target="T30wrrtLgPA3CPtJ6Rs8-9">
          <mxGeometry relative="1" as="geometry" />
        </mxCell>
        <mxCell id="T30wrrtLgPA3CPtJ6Rs8-21" value="instanceOf" style="edgeLabel;html=1;align=center;verticalAlign=middle;resizable=0;points=[];" vertex="1" connectable="0" parent="T30wrrtLgPA3CPtJ6Rs8-20">
          <mxGeometry x="0.3279" y="-5" relative="1" as="geometry">
            <mxPoint as="offset" />
          </mxGeometry>
        </mxCell>
        <mxCell id="T30wrrtLgPA3CPtJ6Rs8-6" value="&lt;strong data-end=&quot;239&quot; data-start=&quot;224&quot;&gt;&lt;code data-end=&quot;237&quot; data-start=&quot;226&quot;&gt;RiskCategory&lt;/code&gt;&lt;/strong&gt;" style="rounded=0;whiteSpace=wrap;html=1;" vertex="1" parent="1">
          <mxGeometry x="550" y="280" width="120" height="60" as="geometry" />
        </mxCell>
        <mxCell id="T30wrrtLgPA3CPtJ6Rs8-9" value="&lt;font style=&quot;font-size: 10px;&quot;&gt;HighRisk&lt;/font&gt;" style="ellipse;whiteSpace=wrap;html=1;" vertex="1" parent="1">
          <mxGeometry x="410" y="420" width="84" height="40" as="geometry" />
        </mxCell>
        <mxCell id="T30wrrtLgPA3CPtJ6Rs8-10" value="&lt;font style=&quot;font-size: 10px;&quot;&gt;LimitedRisk&lt;/font&gt;" style="ellipse;whiteSpace=wrap;html=1;" vertex="1" parent="1">
          <mxGeometry x="500" y="420" width="80" height="40" as="geometry" />
        </mxCell>
        <mxCell id="T30wrrtLgPA3CPtJ6Rs8-11" value="&lt;font style=&quot;font-size: 10px;&quot;&gt;MinimalRisk&lt;/font&gt;" style="ellipse;whiteSpace=wrap;html=1;" vertex="1" parent="1">
          <mxGeometry x="590" y="420" width="90" height="40" as="geometry" />
        </mxCell>
        <mxCell id="T30wrrtLgPA3CPtJ6Rs8-12" value="&lt;font style=&quot;font-size: 10px;&quot;&gt;UnacceptableRisk&lt;/font&gt;" style="ellipse;whiteSpace=wrap;html=1;" vertex="1" parent="1">
          <mxGeometry x="690" y="420" width="90" height="40" as="geometry" />
        </mxCell>
        <mxCell id="T30wrrtLgPA3CPtJ6Rs8-14" style="edgeStyle=orthogonalEdgeStyle;rounded=0;orthogonalLoop=1;jettySize=auto;html=1;exitX=0.25;exitY=1;exitDx=0;exitDy=0;entryX=0.393;entryY=-0.017;entryDx=0;entryDy=0;entryPerimeter=0;" edge="1" parent="1" source="T30wrrtLgPA3CPtJ6Rs8-6" target="T30wrrtLgPA3CPtJ6Rs8-10">
          <mxGeometry relative="1" as="geometry" />
        </mxCell>
        <mxCell id="T30wrrtLgPA3CPtJ6Rs8-15" value="instanceOf" style="edgeLabel;html=1;align=center;verticalAlign=middle;resizable=0;points=[];" vertex="1" connectable="0" parent="T30wrrtLgPA3CPtJ6Rs8-14">
          <mxGeometry x="-0.2928" y="-2" relative="1" as="geometry">
            <mxPoint as="offset" />
          </mxGeometry>
        </mxCell>
        <mxCell id="T30wrrtLgPA3CPtJ6Rs8-18" style="edgeStyle=orthogonalEdgeStyle;rounded=0;orthogonalLoop=1;jettySize=auto;html=1;exitX=1;exitY=1;exitDx=0;exitDy=0;entryX=0.378;entryY=0;entryDx=0;entryDy=0;entryPerimeter=0;" edge="1" parent="1" source="T30wrrtLgPA3CPtJ6Rs8-6" target="T30wrrtLgPA3CPtJ6Rs8-11">
          <mxGeometry relative="1" as="geometry" />
        </mxCell>
        <mxCell id="T30wrrtLgPA3CPtJ6Rs8-19" value="instanceOf" style="edgeLabel;html=1;align=center;verticalAlign=middle;resizable=0;points=[];" vertex="1" connectable="0" parent="T30wrrtLgPA3CPtJ6Rs8-18">
          <mxGeometry x="-0.0001" y="-2" relative="1" as="geometry">
            <mxPoint as="offset" />
          </mxGeometry>
        </mxCell>
        <mxCell id="T30wrrtLgPA3CPtJ6Rs8-25" value="&lt;strong data-end=&quot;239&quot; data-start=&quot;224&quot;&gt;&lt;code data-end=&quot;237&quot; data-start=&quot;226&quot;&gt;ARComplianceCheck&lt;/code&gt;&lt;/strong&gt;" style="rounded=0;whiteSpace=wrap;html=1;" vertex="1" parent="1">
          <mxGeometry x="-240" y="270" width="120" height="60" as="geometry" />
        </mxCell>
        <mxCell id="T30wrrtLgPA3CPtJ6Rs8-28" value="&lt;strong data-end=&quot;239&quot; data-start=&quot;224&quot;&gt;&lt;code data-end=&quot;237&quot; data-start=&quot;226&quot;&gt;AIRegistrationProcess&lt;/code&gt;&lt;/strong&gt;" style="rounded=0;whiteSpace=wrap;html=1;" vertex="1" parent="1">
          <mxGeometry x="-90" y="270" width="150" height="60" as="geometry" />
        </mxCell>
        <mxCell id="T30wrrtLgPA3CPtJ6Rs8-35" value="&lt;strong data-end=&quot;239&quot; data-start=&quot;224&quot;&gt;&lt;code data-end=&quot;237&quot; data-start=&quot;226&quot;&gt;AISystemIdentifier&lt;/code&gt;&lt;/strong&gt;" style="rounded=0;whiteSpace=wrap;html=1;" vertex="1" parent="1">
          <mxGeometry x="90" y="270" width="130" height="60" as="geometry" />
        </mxCell>
        <mxCell id="T30wrrtLgPA3CPtJ6Rs8-38" value="&lt;span data-end=&quot;239&quot; data-start=&quot;224&quot;&gt;&lt;code style=&quot;&quot; data-end=&quot;237&quot; data-start=&quot;226&quot;&gt;&lt;font style=&quot;font-size: 12px;&quot;&gt;&lt;b&gt;PostMarketMonitoringPlan&lt;/b&gt;&lt;/font&gt;&lt;/code&gt;&lt;/span&gt;" style="rounded=0;whiteSpace=wrap;html=1;" vertex="1" parent="1">
          <mxGeometry x="250" y="270" width="170" height="60" as="geometry" />
        </mxCell>
        <mxCell id="T30wrrtLgPA3CPtJ6Rs8-50" style="edgeStyle=orthogonalEdgeStyle;rounded=0;orthogonalLoop=1;jettySize=auto;html=1;exitX=0;exitY=1;exitDx=0;exitDy=0;" edge="1" parent="1" source="T30wrrtLgPA3CPtJ6Rs8-41" target="T30wrrtLgPA3CPtJ6Rs8-48">
          <mxGeometry relative="1" as="geometry" />
        </mxCell>
        <mxCell id="T30wrrtLgPA3CPtJ6Rs8-52" value="instanceOf" style="edgeLabel;html=1;align=center;verticalAlign=middle;resizable=0;points=[];" vertex="1" connectable="0" parent="T30wrrtLgPA3CPtJ6Rs8-50">
          <mxGeometry x="-0.616" y="-3" relative="1" as="geometry">
            <mxPoint y="1" as="offset" />
          </mxGeometry>
        </mxCell>
        <mxCell id="T30wrrtLgPA3CPtJ6Rs8-51" style="edgeStyle=orthogonalEdgeStyle;rounded=0;orthogonalLoop=1;jettySize=auto;html=1;exitX=1;exitY=1;exitDx=0;exitDy=0;entryX=0.5;entryY=0;entryDx=0;entryDy=0;" edge="1" parent="1" source="T30wrrtLgPA3CPtJ6Rs8-41" target="T30wrrtLgPA3CPtJ6Rs8-49">
          <mxGeometry relative="1" as="geometry" />
        </mxCell>
        <mxCell id="T30wrrtLgPA3CPtJ6Rs8-64" value="instanceOf" style="edgeLabel;html=1;align=center;verticalAlign=middle;resizable=0;points=[];" vertex="1" connectable="0" parent="T30wrrtLgPA3CPtJ6Rs8-51">
          <mxGeometry x="0.1129" y="3" relative="1" as="geometry">
            <mxPoint x="-1" as="offset" />
          </mxGeometry>
        </mxCell>
        <mxCell id="T30wrrtLgPA3CPtJ6Rs8-41" value="&lt;strong data-end=&quot;239&quot; data-start=&quot;224&quot;&gt;&lt;code data-end=&quot;237&quot; data-start=&quot;226&quot;&gt;&lt;font style=&quot;font-size: 12px;&quot;&gt;ComplianceActivity&lt;/font&gt;&lt;/code&gt;&lt;/strong&gt;" style="rounded=0;whiteSpace=wrap;html=1;" vertex="1" parent="1">
          <mxGeometry x="870" y="280" width="140" height="60" as="geometry" />
        </mxCell>
        <mxCell id="T30wrrtLgPA3CPtJ6Rs8-48" value="&lt;font style=&quot;font-size: 10px;&quot;&gt;ContinuousComplianceAssurance&lt;/font&gt;" style="ellipse;whiteSpace=wrap;html=1;" vertex="1" parent="1">
          <mxGeometry x="800" y="420" width="170" height="40" as="geometry" />
        </mxCell>
        <mxCell id="T30wrrtLgPA3CPtJ6Rs8-49" value="&lt;font style=&quot;font-size: 10px;&quot;&gt;FundamentalRightsImpactAssessment&lt;/font&gt;" style="ellipse;whiteSpace=wrap;html=1;" vertex="1" parent="1">
          <mxGeometry x="980" y="420" width="180" height="40" as="geometry" />
        </mxCell>
        <mxCell id="T30wrrtLgPA3CPtJ6Rs8-55" value="&lt;strong data-end=&quot;239&quot; data-start=&quot;224&quot;&gt;&lt;code data-end=&quot;237&quot; data-start=&quot;226&quot;&gt;&lt;font style=&quot;font-size: 12px;&quot;&gt;AISystemChangeDeclaration&lt;/font&gt;&lt;/code&gt;&lt;/strong&gt;" style="rounded=0;whiteSpace=wrap;html=1;" vertex="1" parent="1">
          <mxGeometry x="1080" y="280" width="180" height="60" as="geometry" />
        </mxCell>
        <mxCell id="T30wrrtLgPA3CPtJ6Rs8-58" value="&lt;strong data-end=&quot;239&quot; data-start=&quot;224&quot;&gt;&lt;code data-end=&quot;237&quot; data-start=&quot;226&quot;&gt;&lt;font style=&quot;font-size: 12px;&quot;&gt;TechnicalDocumentation&lt;/font&gt;&lt;/code&gt;&lt;/strong&gt;" style="rounded=0;whiteSpace=wrap;html=1;" vertex="1" parent="1">
          <mxGeometry x="1310" y="280" width="160" height="60" as="geometry" />
        </mxCell>
      </root>
    </mxGraphModel>
  </diagram>
</mxfile>
